<svg xmlns="http://www.w3.org/2000/svg" xmlns:xlink="http://www.w3.org/1999/xlink" version="1.1" x="0px" y="0px" viewBox="0 0 64 80" style="enable-background:new 0 0 64 64;" xml:space="preserve"><g><g><path d="M23.253,41.378c0.552,0,1-0.448,1-1s-0.448-1-1-1h-3.501c-0.552,0-1,0.448-1,1v6.725c0,0.552,0.448,1,1,1s1-0.448,1-1    v-2.464h2.501c0.552,0,1-0.448,1-1s-0.448-1-1-1h-2.501v-1.261H23.253z"/><path d="M31.503,42.26c0-1.589-1.293-2.882-2.882-2.882H26.95c-0.047,0-0.086,0.02-0.131,0.026    c-0.045-0.006-0.085-0.026-0.131-0.026c-0.552,0-1,0.448-1,1v6.725c0,0.552,0.448,1,1,1c0.552,0,1-0.448,1-1v-1.96h0.761l1,2.352    c0.162,0.38,0.532,0.609,0.921,0.609c0.13,0,0.263-0.026,0.391-0.08c0.508-0.216,0.745-0.804,0.529-1.312l-0.924-2.173    C31.052,44.011,31.503,43.191,31.503,42.26z M27.687,41.378h0.934c0.486,0,0.882,0.396,0.882,0.882s-0.396,0.882-0.882,0.882    h-0.934V41.378z"/><path d="M37.297,46.103h-2.643l0-1.464h2.29c0.552,0,1-0.448,1-1s-0.448-1-1-1h-2.289l0-1.26h2.471c0.552,0,1-0.448,1-1    s-0.448-1-1-1h-3.47c0,0,0,0,0,0h-0.002c-0.552,0-1,0.448-1,1c0,0.003,0.002,0.006,0.002,0.01l-0.002,6.714c0,0.552,0.447,1,1,1    c0,0,0,0,0,0c0,0,0.001,0,0.001,0s0.001,0,0.001,0h3.642c0.552,0,1-0.448,1-1S37.849,46.103,37.297,46.103z"/><path d="M44.248,46.103h-2.644l0.001-1.464h2.29c0.552,0,1-0.448,1-1s-0.448-1-1-1h-2.289l0-1.26h2.471c0.552,0,1-0.448,1-1    s-0.448-1-1-1h-3.47c0,0,0,0,0,0h-0.002c-0.552,0-1,0.448-1,1c0,0.004,0.002,0.008,0.002,0.012l-0.002,6.712c0,0.552,0.447,1,1,1    c0,0,0,0,0,0c0,0,0.001,0,0.001,0s0.001,0,0.001,0h3.642c0.552,0,1-0.448,1-1S44.8,46.103,44.248,46.103z"/><path d="M48.691,35.855V15.421c0-1.743-1.417-3.16-3.16-3.16H18.469c-1.742,0-3.16,1.417-3.16,3.16v20.434    c-3.804,0.328-6.8,3.523-6.8,7.411v1.03c0,4.104,3.339,7.444,7.443,7.444h32.095c4.104,0,7.443-3.339,7.443-7.444v-1.03    C55.491,39.378,52.495,36.183,48.691,35.855z M17.309,35.822V19.734h9.559v10.3c0,0.41,0.25,0.779,0.632,0.93    c0.382,0.152,0.816,0.055,1.097-0.245L32,27.098l3.403,3.621c0.192,0.205,0.458,0.315,0.729,0.315c0.124,0,0.249-0.023,0.368-0.07    c0.381-0.151,0.632-0.52,0.632-0.93v-10.3h9.559v16.088H17.309z M35.132,27.51l-2.403-2.557c-0.378-0.401-1.079-0.401-1.457,0    l-2.403,2.557V14.261h6.264V27.51z M46.691,15.421v2.313h-9.559v-3.474h8.399C46.171,14.261,46.691,14.781,46.691,15.421z     M18.469,14.261h8.399v3.474h-9.559v-2.313C17.309,14.781,17.829,14.261,18.469,14.261z M53.491,44.295    c0,3.002-2.442,5.444-5.443,5.444H15.953c-3.001,0-5.443-2.442-5.443-5.444v-1.03c0-3.001,2.442-5.443,5.443-5.443h32.095    c3.001,0,5.443,2.442,5.443,5.443V44.295z"/></g></g><text x="0" y="79" fill="#000000" font-size="5px" font-weight="bold" font-family="'Helvetica Neue', Helvetica, Arial-Unicode, Arial, Sans-serif">Created by AB Designs</text><text x="0" y="84" fill="#000000" font-size="5px" font-weight="bold" font-family="'Helvetica Neue', Helvetica, Arial-Unicode, Arial, Sans-serif">from the Noun Project</text></svg>