<svg xmlns="http://www.w3.org/2000/svg" xmlns:xlink="http://www.w3.org/1999/xlink" version="1.1" x="0px" y="0px" viewBox="0 0 512 640" style="enable-background:new 0 0 512 512;" xml:space="preserve"><path d="M505.902,95.506c-4.426-2.499-9.946-1.94-13.779,1.396L344.246,225.583c-3.75,3.264-7.926,4.49-12.826,3.777  c-4.898-0.707-8.573-3.079-11.235-7.25l-54.068-84.748c-2.204-3.455-6.019-5.546-10.116-5.546s-7.912,2.091-10.116,5.546  l-54.071,84.749c-2.66,4.171-6.335,6.542-11.232,7.249c-4.898,0.711-9.076-0.514-12.828-3.777L19.877,96.902  c-3.832-3.337-9.353-3.896-13.779-1.396c-4.425,2.5-6.796,7.517-5.917,12.523l39.944,227.545v70.473c0,6.627,5.373,12,12,12h407.75  c6.627,0,12-5.373,12-12v-70.473l39.944-227.545C512.698,103.022,510.327,98.006,505.902,95.506z M64.125,394.047v-50.651  c125.729-37.835,258.021-37.835,383.75,0v50.651H64.125z M450.398,319.104C387.232,300.563,321.905,291.169,256,291.169  s-131.232,9.395-194.398,27.936L29.676,137.243l122.322,106.445c8.955,7.793,20.247,11.119,32.012,9.426  c11.885-1.717,21.58-7.975,28.036-18.096L256,166.127l43.953,68.893c6.458,10.121,16.153,16.379,28.037,18.095  c11.758,1.693,23.053-1.633,32.01-9.426l122.324-106.445L450.398,319.104z"/><text x="0" y="527" fill="#000000" font-size="5px" font-weight="bold" font-family="'Helvetica Neue', Helvetica, Arial-Unicode, Arial, Sans-serif">Created by afian roc</text><text x="0" y="532" fill="#000000" font-size="5px" font-weight="bold" font-family="'Helvetica Neue', Helvetica, Arial-Unicode, Arial, Sans-serif">from the Noun Project</text></svg>